<mxfile host="app.diagrams.net" modified="2023-11-16T15:01:02.309Z" agent="Mozilla/5.0 (Macintosh; Intel Mac OS X 10_15_7) AppleWebKit/605.1.15 (KHTML, like Gecko) Version/17.1.1 Safari/605.1.15" etag="3g754Jq1HS6lyVEmNwof" version="22.1.2" type="github">
  <diagram name="Page-1" id="9mUUebwwYZomgFk--_Ov">
    <mxGraphModel dx="506" dy="570" grid="0" gridSize="10" guides="1" tooltips="1" connect="1" arrows="1" fold="1" page="0" pageScale="1" pageWidth="827" pageHeight="1169" math="0" shadow="0">
      <root>
        <mxCell id="0" />
        <mxCell id="1" parent="0" />
      </root>
    </mxGraphModel>
  </diagram>
</mxfile>
